<svg xmlns="http://www.w3.org/2000/svg" version="1.1" xmlns:xlink="http://www.w3.org/1999/xlink" xmlns:svgjs="http://svgjs.com/svgjs" width="1440" height="560" preserveAspectRatio="none" viewBox="0 0 1440 560"><g mask="url(&quot;#SvgjsMask1000&quot;)" fill="none"><rect width="1440" height="560" x="0" y="0" fill="#1e3266"></rect><path d="M1488 560L0 560 L0 328.47Q69.79 278.26, 120 348.06Q124.16 280.22, 192 284.38Q257.75 230.13, 312 295.87Q368.28 280.15, 384 336.44Q452.28 284.72, 504 353Q549.1 278.1, 624 323.2Q682.81 310.01, 696 368.83Q717.62 318.45, 768 340.07Q775.43 275.5, 840 282.94Q882 252.94, 912 294.94Q967.12 278.06, 984 333.17Q1057.58 286.75, 1104 360.33Q1120.73 305.06, 1176 321.79Q1223.78 249.57, 1296 297.35Q1352.93 282.29, 1368 339.22Q1433.75 284.97, 1488 350.72z" fill="#182f5d"></path><path d="M1488 560L0 560 L0 411.31Q72.3 363.62, 120 435.92Q157.64 353.56, 240 391.2Q312.02 343.22, 360 415.24Q368.76 352, 432 360.77Q503.22 311.99, 552 383.2Q608.16 367.37, 624 423.53Q691.81 371.33, 744 439.14Q769.67 344.81, 864 370.49Q893.6 328.09, 936 357.69Q1001.36 351.04, 1008 416.4Q1025.99 362.39, 1080 380.39Q1107.48 335.87, 1152 363.34Q1213.04 352.38, 1224 413.41Q1243.14 360.56, 1296 379.7Q1326.84 338.54, 1368 369.38Q1462.08 343.45, 1488 437.53z" fill="#25467d"></path><path d="M1488 560L0 560 L0 448.18Q52.04 428.22, 72 480.25Q100.47 436.72, 144 465.18Q196.89 398.07, 264 450.96Q329.84 444.8, 336 510.64Q376.76 431.4, 456 472.17Q503.52 447.69, 528 495.21Q529.82 425.02, 600 426.84Q655.68 410.52, 672 466.21Q731.66 453.87, 744 513.53Q765.74 463.26, 816 485Q840.32 437.32, 888 461.64Q909.01 410.65, 960 431.67Q1002.69 402.37, 1032 445.06Q1090.6 431.66, 1104 490.26Q1128.28 442.54, 1176 466.83Q1259.02 429.85, 1296 512.87Q1345.76 442.63, 1416 492.38Q1446.56 450.94, 1488 481.49z" fill="#356cb1"></path><path d="M1488 560L0 560 L0 500.41Q67.25 495.66, 72 562.92Q115.39 534.31, 144 577.69Q168.85 482.54, 264 507.39Q305.35 476.74, 336 518.08Q404.55 514.63, 408 583.19Q423.44 478.63, 528 494.07Q596.69 442.76, 648 511.45Q703.92 495.38, 720 551.3Q785.49 496.78, 840 562.27Q862.61 512.88, 912 535.49Q966.43 469.92, 1032 524.35Q1079.81 500.16, 1104 547.97Q1142.09 466.06, 1224 504.15Q1289.38 449.52, 1344 514.9Q1402.87 501.77, 1416 560.64Q1444.8 517.44, 1488 546.24z" fill="white"></path></g><defs><mask id="SvgjsMask1000"><rect width="1440" height="560" fill="#ffffff"></rect></mask></defs></svg>